<svg width="344" height="388" viewBox="0 0 344 388" fill="none" xmlns="http://www.w3.org/2000/svg">
<path d="M329.635 311.235C321.265 304.327 312.547 297.851 303.514 291.835C284.272 279.286 264.765 267.143 244.236 254.197C243.583 253.787 242.84 253.544 242.071 253.487C241.302 253.43 240.531 253.562 239.824 253.872C239.118 254.181 238.5 254.659 238.02 255.263C237.541 255.867 237.216 256.579 237.075 257.337C229.139 299.992 221.572 340.866 213.918 382.075C213.793 382.756 213.818 383.455 213.993 384.125C214.168 384.795 214.49 385.419 214.932 385.951C215.374 386.483 215.928 386.912 216.554 387.207C217.181 387.501 217.864 387.655 218.557 387.657H321.883C324.758 387.657 327.603 387.089 330.258 385.987C332.913 384.885 335.324 383.27 337.353 381.234C339.383 379.198 340.991 376.782 342.084 374.123C343.178 371.465 343.735 368.617 343.726 365.743C343.726 357.445 343.726 349.234 343.903 341.051C344.112 335.298 342.924 329.58 340.438 324.387C337.953 319.194 334.247 314.681 329.635 311.235V311.235Z" fill="#FF7622"/>
<path d="M9.90336 314.515C4.98223 318.547 1.69155 324.228 0.643508 330.503C-0.0619721 342.408 -0.0533 354.313 0.052522 366.342C0.101366 372.103 2.42454 377.611 6.51569 381.668C10.6068 385.724 16.1351 388 21.8964 388H124.014C124.705 388 125.389 387.847 126.014 387.554C126.64 387.261 127.193 386.834 127.635 386.303C128.078 385.772 128.398 385.15 128.574 384.482C128.75 383.814 128.777 383.116 128.653 382.436C121.06 340.742 113.574 299.674 105.981 258.006C105.849 257.272 105.544 256.58 105.093 255.986C104.642 255.392 104.055 254.914 103.384 254.59C102.712 254.265 101.973 254.105 101.227 254.121C100.482 254.137 99.751 254.329 99.0938 254.682C67.3596 271.463 37.4669 291.517 9.90336 314.515V314.515Z" fill="#FF7622"/>
<path d="M180.86 267.213L217.298 239.117C219.412 237.468 221.121 235.357 222.292 232.945C223.463 230.532 224.065 227.883 224.052 225.201C224.052 204.161 223.974 199.231 224.3 196.436C224.476 195.025 224.741 194.134 225.138 191.938L235.658 173.129C247.351 176.444 246.637 161.991 249.485 138.384C250.552 129.362 249.573 126.664 246.381 125.068L245.799 123.948C248.048 114.415 260.402 90.0758 257.528 67.9325C256.478 59.9517 253.166 52.4382 247.983 46.2797C242.799 40.1212 235.961 35.5752 228.277 33.179C216.327 4.84515 184.422 -0.225419 163.593 4.03392C150.665 6.67947 118.205 2.07618 105.162 0.0391101C104.518 -0.0536309 103.86 0.0192245 103.251 0.250638C102.643 0.482051 102.104 0.864076 101.684 1.36156C101.264 1.85905 100.978 2.45546 100.852 3.09415C100.726 3.73285 100.764 4.39284 100.964 5.01243C102.402 9.63355 104.098 14.1706 106.044 18.6019C106.417 19.4865 106.463 20.4754 106.172 21.3905C105.881 22.3056 105.272 23.0865 104.456 23.593C84.1733 36.5826 74.7731 68.9467 96.3608 119.212L92.6221 124.371C88.16 125.994 86.6868 128.013 87.9126 138.366C90.8668 163.137 90.0649 175.968 101.758 173.111L105.682 175.095C106.405 182.403 108.896 189.424 112.94 195.554C113.598 196.571 114.307 197.554 115.065 198.499V222.565C115.056 225.238 115.661 227.876 116.83 230.279C117.999 232.682 119.703 234.785 121.811 236.428L161.715 267.187C162.838 268.073 163.584 269.351 163.802 270.765C164.02 272.179 163.693 273.623 162.888 274.806L151.212 291.931C150.259 293.348 149.697 294.991 149.583 296.694C149.468 298.397 149.805 300.101 150.559 301.632L157.297 315.221C158.414 317.491 158.826 320.043 158.479 322.549L149.572 387.498H193.099L184.158 322.549C183.813 320.042 184.228 317.489 185.349 315.221L192.095 301.632C192.848 300.1 193.183 298.396 193.067 296.693C192.951 294.989 192.387 293.347 191.433 291.931L179.758 274.806C178.953 273.633 178.619 272.201 178.823 270.794C179.027 269.386 179.755 268.108 180.86 267.213V267.213Z" fill="#FF7622"/>
</svg>
